<!-- Generated by IcoMoon.io -->
<svg version="1.1" xmlns="http://www.w3.org/2000/svg" width="512" height="512" viewBox="0 0 512 512">
<title></title>
<g id="icomoon-ignore">
</g>
<path d="M466.806 403.566c17.498 17.498 17.498 45.846 0 63.346-8.679 8.749-20.158 13.089-31.637 13.089s-22.93-4.375-31.665-13.124l-147.521-147.444-147.507 147.409c-8.749 8.819-20.214 13.159-31.679 13.159s-22.916-4.339-31.672-13.159c-17.498-17.498-17.498-45.846 0-63.346l147.549-147.549-147.549-147.479c-17.498-17.499-17.498-45.846 0-63.346s45.846-17.498 63.346 0l147.514 147.619 147.549-147.549c17.498-17.498 45.846-17.498 63.346 0s17.498 45.846 0 63.346l-147.549 147.549 147.479 147.479z"></path>
</svg>
